<svg xmlns="http://www.w3.org/2000/svg" width="24" height="23.969" viewBox="0 0 24 23.969">
  <defs>
    <style>
      .cls-1 {
        fill: #d42451;
        fill-rule: evenodd;
      }
    </style>
  </defs>
  <path id="Forma_1" data-name="Forma 1" class="cls-1" d="M1866.11,781.02l-0.03.006-22.55,6.149a0.729,0.729,0,0,0-.27,1.259l7.02,5.782-1.29,3.878a0.726,0.726,0,0,0,.92.916l3.87-1.293,5.79,7.019a0.718,0.718,0,0,0,1.25-.27l6.15-22.551a0.024,0.024,0,0,0,.01-0.022A0.721,0.721,0,0,0,1866.11,781.02Zm-20.84,7.186,17.86-4.873-12,9.705Zm8.33,8.046-2.78.925,0.93-2.773,9.66-7.81Zm6.19,6.481-4.83-5.866,9.71-12Z" transform="translate(-1843 -781.031)"/>
</svg>
