<svg xmlns="http://www.w3.org/2000/svg" width="69" height="63" viewBox="0 0 69 63">
  <defs>
    <style>
      .cls-1 {
        fill: #d42451;
        stroke: #e93333;
        stroke-width: 1px;
        fill-rule: evenodd;
      }
    </style>
  </defs>
  <path id="Forma_1" data-name="Forma 1" class="cls-1" d="M1032.58,11180.6l-0.5-.1a18.443,18.443,0,0,0-16.28,9.9,15.446,15.446,0,0,0-16.338,2.2,59.956,59.956,0,0,0-.68-7,40.666,40.666,0,0,1-.536-5.1h7.164a4.184,4.184,0,0,0,3-1.2l5.67-5.6a4.264,4.264,0,0,0,.09-5.9,3.991,3.991,0,0,0,.69-2.7,4.1,4.1,0,0,0-1.87-3.1l-3.44-2.3a10.1,10.1,0,0,0-5.59-1.7,15.63,15.63,0,0,0-11.034,4.5,60.158,60.158,0,0,0-12.7,18.4c-3.613,8.2-5.445,14.2-5.445,18a19.342,19.342,0,0,1-.552,5.1,6.157,6.157,0,0,0,3,7.1,68.062,68.062,0,0,0,33.562,8.9h2.05a67.657,67.657,0,0,0,21.39-3.5l0.99-.3a9.8,9.8,0,0,0,6.78-9.3v-16.5A9.762,9.762,0,0,0,1032.58,11180.6Zm6.59,26.3a6.917,6.917,0,0,1-4.85,6.6l-0.99.4a64.824,64.824,0,0,1-20.49,3.3h-2.05a65.8,65.8,0,0,1-32.157-8.5,3.423,3.423,0,0,1-1.677-3.9,22.27,22.27,0,0,0,.66-5.9c0-3.3,1.8-9.1,5.208-16.8a57.891,57.891,0,0,1,12.105-17.6,12.7,12.7,0,0,1,9.031-3.7,7.181,7.181,0,0,1,4.02,1.2l3.44,2.3a1.294,1.294,0,0,1,.62,1,1.421,1.421,0,0,1-.4,1.2l-4.53,4.5a1.566,1.566,0,0,1-1.83.3,1.786,1.786,0,0,1-.86-1.2,1.656,1.656,0,0,1,.45-1.4l1.3-1.2a1.417,1.417,0,0,0,0-2,1.347,1.347,0,0,0-2.01,0l-1.3,1.3a4.339,4.339,0,0,0,1.15,7,4.588,4.588,0,0,0,5.11-.8l3.09-3.1a1.4,1.4,0,0,1-.13,1.8l-5.67,5.6a1.27,1.27,0,0,1-1,.4h-6.616a3.724,3.724,0,0,1,.29-0.4,1.412,1.412,0,0,0,0-2,1.525,1.525,0,0,0-2,0c-2.318,2.3-1.755,6.2-1.1,10.7a51.887,51.887,0,0,1,.687,7.2c0,5.8-4.416,7.1-4.6,7.1a1.429,1.429,0,0,0-1.019,1.7,1.38,1.38,0,0,0,1.372,1.1,0.463,0.463,0,0,0,.344-0.1,9.092,9.092,0,0,0,5.874-5.3c0.019,0,.051,0,0.069-0.1a12.807,12.807,0,0,1,10.719-5.8,12.592,12.592,0,0,1,8.97,3.7,1.521,1.521,0,0,0,2,0,1.417,1.417,0,0,0,0-2,11.979,11.979,0,0,0-2.12-1.7,15.4,15.4,0,0,1,13.81-8.4h0.42a6.951,6.951,0,0,1,6.67,7v16.5h0Z" transform="translate(-973.5 -11157.5)"/>
</svg>
