<svg xmlns="http://www.w3.org/2000/svg" width="73" height="56" viewBox="0 0 73 56">
  <defs>
    <style>
      .cls-1 {
        fill: #d42451;
        fill-rule: evenodd;
      }
    </style>
  </defs>
  <path class="cls-1" d="M749.906,10910.5h-7.429v-10.4a6.081,6.081,0,0,0-6.094-6.1H689.094a6.081,6.081,0,0,0-6.094,6.1v27.3a6.145,6.145,0,0,0,6.094,6.1h7.429v10.4a6.081,6.081,0,0,0,6.094,6.1h47.289a6.081,6.081,0,0,0,6.094-6.1v-27.3A6.145,6.145,0,0,0,749.906,10910.5Zm-63.424-10.4a2.567,2.567,0,0,1,2.612-2.6h47.289a2.567,2.567,0,0,1,2.612,2.6v2.4H686.482v-2.4Zm10.041,16.5v13.4h-7.429a2.631,2.631,0,0,1-2.612-2.6V10914h10.625A6.192,6.192,0,0,0,696.523,10916.6Zm-10.041-6v-4.6H739v4.5H702.617a0.475,0.475,0,0,0-.35.1H686.482Zm63.424,35.9H702.617a2.567,2.567,0,0,1-2.612-2.6v-27.3a2.657,2.657,0,0,1,2.4-2.6h47.5a2.63,2.63,0,0,1,2.612,2.6v27.3h0A2.567,2.567,0,0,1,749.906,10946.5Zm-18.4-24.6a8.629,8.629,0,0,0-5.239,1.8,8.837,8.837,0,0,0-5.251-1.8,8.4,8.4,0,0,0,0,16.8,8.314,8.314,0,0,0,5.251-1.9,8.042,8.042,0,0,0,5.239,1.8,8.341,8.341,0,0,0,8.393-8.3A8.426,8.426,0,0,0,731.507,10921.9Zm-7.451,12.2a4.8,4.8,0,0,1-3.04,1.1,4.9,4.9,0,1,1,0-9.8,4.705,4.705,0,0,1,3.04,1,8.62,8.62,0,0,0-.943,3.9A7.911,7.911,0,0,0,724.056,10934.1Zm7.451,1.1a4.9,4.9,0,1,1,4.911-4.9A4.912,4.912,0,0,1,731.507,10935.2Z" transform="translate(-683 -10894)"/>
</svg>
