<svg xmlns="http://www.w3.org/2000/svg" width="58" height="58" viewBox="0 0 58 58">
  <defs>
    <style>
      .cls-1 {
        fill: #d42451;
        fill-rule: evenodd;
      }
    </style>
  </defs>
  <path id="Forma_1" data-name="Forma 1" class="cls-1" d="M447.5,10900.3l-4.806-4.8a5.08,5.08,0,0,0-7.208,0c-1.272,1.2-30.2,30.2-31.94,31.9-0.044.1-.085,0.1-0.123,0.2-0.34.4-.083-0.1-5.534,15.3a1.733,1.733,0,0,0,.4,1.8,1.658,1.658,0,0,0,1.767.4c15.889-5.6,15.108-5.3,15.5-5.7,1.078-1,29.489-29.5,31.941-31.9A5.084,5.084,0,0,0,447.5,10900.3Zm-20.424,8.4,2.4,2.4-19.926,19.9-2.4-2.4Zm-24.8,32,3.172-9c0.431,0.5,4.8,4.8,5.8,5.8Zm12.079-4.9-2.4-2.4,19.927-19.9,2.4,2.4Zm22.329-22.3-7.208-7.2,2.4-2.4,7.208,7.2Zm8.41-8.4-3.6,3.6-7.209-7.2,3.6-3.6a1.636,1.636,0,0,1,2.4,0l4.806,4.8A1.694,1.694,0,0,1,445.1,10905.1Zm2.194,43.5H392.7a1.7,1.7,0,0,0,0,3.4h54.6A1.7,1.7,0,0,0,447.3,10948.6Z" transform="translate(-391 -10894)"/>
</svg>
