<svg xmlns="http://www.w3.org/2000/svg" width="56" height="74" viewBox="0 0 56 74">
  <defs>
    <style>
      .cls-1 {
        fill: #d42451;
        fill-rule: evenodd;
      }
    </style>
  </defs>
  <path id="Forma_1" data-name="Forma 1" class="cls-1" d="M420.319,11188.4a2.359,2.359,0,0,0-3.3,0l-7.682,7.6-3.014-2.9a2.19,2.19,0,0,0-3.3,0,2.217,2.217,0,0,0,0,3.2l4.667,4.6a2.293,2.293,0,0,0,3.3,0l9.334-9.2A2.336,2.336,0,0,0,420.319,11188.4Zm0,18.5a2.359,2.359,0,0,0-3.3,0l-7.682,7.6-3.014-2.9a2.354,2.354,0,0,0-3.3,0,2.217,2.217,0,0,0,0,3.2l4.667,4.6a2.293,2.293,0,0,0,3.3,0l9.334-9.2A2.336,2.336,0,0,0,420.319,11206.9Zm17.014-14.5H428a2.3,2.3,0,1,0,0,4.6h9.333A2.3,2.3,0,1,0,437.333,11192.4Zm0,18.5H428a2.3,2.3,0,1,0,0,4.6h9.333A2.3,2.3,0,1,0,437.333,11210.9Zm7-41.7H435v-2.3a2.363,2.363,0,0,0-2.333-2.3H427.6a7.039,7.039,0,0,0-13.206,0h-5.064a2.363,2.363,0,0,0-2.333,2.3v2.3h-9.333a4.684,4.684,0,0,0-4.667,4.7v55.5a4.664,4.664,0,0,0,4.667,4.6h46.666a4.664,4.664,0,0,0,4.667-4.6v-55.5A4.684,4.684,0,0,0,444.333,11169.2Zm-32.666,0h4.666a2.3,2.3,0,0,0,2.334-2.3,2.333,2.333,0,0,1,4.666,0,2.3,2.3,0,0,0,2.334,2.3h4.666v4.7H411.667v-4.7Zm32.666,60.2H397.667v-55.5H407v2.3a2.3,2.3,0,0,0,2.333,2.3h23.334a2.3,2.3,0,0,0,2.333-2.3v-2.3h9.333v55.5Z" transform="translate(-393 -11160)"/>
</svg>
