<svg xmlns="http://www.w3.org/2000/svg" width="23" height="16" viewBox="0 0 23 16">
  <defs>
    <style>
      .cls-1 {
        fill: #ff3232;
        fill-rule: evenodd;
      }
    </style>
  </defs>
  <path id="Forma_1" data-name="Forma 1" class="cls-1" d="M390.767,3202.5c0.623,0.36,9.258,5.37,9.579,5.55a2.535,2.535,0,0,0,2.316,0c0.321-.18,8.956-5.19,9.579-5.55s1.215-1.5.068-1.5H390.7C389.553,3201,390.143,3202.14,390.767,3202.5Zm21.738,2.76c-0.708.4-9.41,5.31-9.843,5.55a2.535,2.535,0,0,1-2.316,0c-0.433-.24-9.135-5.15-9.843-5.55-0.5-.28-0.5.04-0.5,0.3v10.12a1.543,1.543,0,0,0,1.267,1.32h20.458a1.543,1.543,0,0,0,1.267-1.32v-10.12C413,3205.3,413.005,3204.98,412.505,3205.26Z" transform="translate(-390 -3201)"/>
</svg>
