<svg id="Группа_2" data-name="Группа 2" xmlns="http://www.w3.org/2000/svg" width="1112" height="116.34" viewBox="0 0 1112 116.34">
  <defs>
    <style>
      .cls-1 {
        fill: none;
        stroke: #fff;
        stroke-width: 2px;
      }

      .cls-1, .cls-2 {
        fill-rule: evenodd;
      }

      .cls-2 {
        fill: #fff;
      }
    </style>
  </defs>
  <path id="_bodyevolutionbox_bodyevolutionbox_bodyevolutionbox_copy_4" data-name="#bodyevolutionbox  #bodyevolutionbox  #bodyevolutionbox copy 4" class="cls-1" d="M616.7,4813.38h-8.052l3.221-27.01h8.784l0.512-11.27h-7.978l3.586-29.5h-14.2l-3.513,29.5H590.2l3.587-29.5H579.516L576,4775.1h-8.271l-0.586,11.27h7.539l-3.22,27.01h-8.2l-0.586,11.27h7.466l-3.806,32.5h13.981l3.879-32.5h9l-3.806,32.5h13.98l3.88-32.5h8.857Zm-27.888-27.01h8.93l-3.22,27.01h-8.93Zm79.711,42.46c0.22,9.36-3.44,11.49-9.808,11.49h-9.369v-33.45h9.3c6.66,0,9.881,4.75,9.881,10.83v11.13Zm-1.171-49.56c0.219,8.13-2.635,11.78-10.614,11.78h-7.392v-29.27h8.637c6.734,0,9.3,4.32,9.3,10.76Zm18.519,38.43c0-10.47-4.392-17.5-11.492-19.47,7.319-2.12,10.32-8.93,10.32-20.57v-6.51c0-15.96-8.271-25.33-26.2-25.33H632v111.26h26.863c18.3,0,27.01-8.05,27.01-28.55V4817.7Zm39.013-73.42c-21.739,0-26.936,14.42-26.936,31.33v51.68c0,16.83,5.05,31.32,26.936,31.32v-0.07l0.073,0.07c21.74,0,26.863-14.27,26.863-31.32v-51.68c0-16.83-4.977-31.33-26.863-31.33-0.073,0-.073,0-0.073.08v-0.08Zm0,97.5c-8.71,0-9.515-7.25-9.515-14.57v-51.53c0-7.46,1.024-14.42,9.222-14.64a0.512,0.512,0,0,0,.366.08c8.711,0,9.516,7.24,9.516,14.56v51.53c0,7.47-1.1,14.42-9.3,14.64C725.1,4841.85,724.957,4841.78,724.884,4841.78Zm41.5-95.96v111.33h26.278c21.593,0,26.863-13.91,26.863-31.03v-49.19c0-17.2-5.27-30.89-26.644-31.11h-26.5Zm17.348,94.57v-77.74H793.1c7.027,0.22,9.15,5.71,9.15,14.28v49.11c0,8.79-2.2,14.13-9.15,14.35h-9.369Zm104.158-94.57H870.764l-13.175,46.7-12.3-46.7H826.334l22.471,70.63v40.7H866.08v-40.7Zm590.328,83.01c0.22,9.36-3.44,11.49-9.81,11.49h-9.37v-33.45h9.3c6.66,0,9.88,4.75,9.88,10.83v11.13Zm-1.17-49.56c0.22,8.13-2.64,11.78-10.61,11.78h-7.4v-29.27h8.64c6.73,0,9.3,4.32,9.3,10.76Zm18.52,38.43c0-10.47-4.39-17.5-11.49-19.47,7.32-2.12,10.32-8.93,10.32-20.57v-6.51c0-15.96-8.27-25.33-26.21-25.33H1441.7v111.26h26.86c18.3,0,27.01-8.05,27.01-28.55V4817.7Zm39.01-73.42c-21.74,0-26.93,14.42-26.93,31.33v51.68c0,16.83,5.05,31.32,26.93,31.32v-0.07l0.07,0.07c21.74,0,26.87-14.27,26.87-31.32v-51.68c0-16.83-4.98-31.33-26.87-31.33-0.07,0-.07,0-0.07.08v-0.08Zm0,97.5c-8.71,0-9.51-7.25-9.51-14.57v-51.53c0-7.46,1.02-14.42,9.22-14.64a0.5,0.5,0,0,0,.36.08c8.71,0,9.52,7.24,9.52,14.56v51.53c0,7.47-1.1,14.42-9.3,14.64C1534.8,4841.85,1534.65,4841.78,1534.58,4841.78Zm97.5,15.37-21.3-57.6,19.76-53.73h-18.96l-11.93,35.94-12.15-35.94h-19.03l19.25,53.65-21.01,57.68h19.26l13.02-40.04,13.77,40.04h19.32Z" transform="translate(-541.577 -4743.28)"/>
  <path id="_bodyevolutionbox_bodyevolutionbox_bodyevolutionbox_copy_4-2" data-name="#bodyevolutionbox  #bodyevolutionbox  #bodyevolutionbox copy 4" class="cls-2" d="M944.107,4857.15v-16.76H914.389v-31.47h24.667v-16.84H914.389v-29.43h29.718v-16.83H897.042v111.33h47.065Zm50.359-111.4L981,4838.05l-13.468-92.3H950.036l19.251,111.4h23.422l19.251-111.4H994.466Zm50.874-1.47c-21.74,0-26.94,14.42-26.94,31.33v51.68c0,16.83,5.05,31.32,26.94,31.32v-0.07l0.07,0.07c21.74,0,26.86-14.27,26.86-31.32v-51.68c0-16.83-4.97-31.33-26.86-31.33-0.07,0-.07,0-0.07.08v-0.08Zm0,97.5c-8.71,0-9.52-7.25-9.52-14.57v-51.53c0-7.46,1.03-14.42,9.22-14.64a0.526,0.526,0,0,0,.37.08c8.71,0,9.52,7.24,9.52,14.56v51.53c0,7.47-1.1,14.42-9.3,14.64C1045.56,4841.85,1045.41,4841.78,1045.34,4841.78Zm87.25,15.37v-16.61h-28.4v-94.72h-17.35v111.33h45.75Zm44.5-111.33v84.03c0,6.95-.8,12-9.51,12-8.79,0-9.59-5.05-9.59-12v-84.03h-17.28v84.25c0,17.2,5.27,28.54,26.87,28.54,21.44,0,26.79-11.34,26.79-28.54v-84.25h-17.28Zm79.13,16.83v-16.83h-53.88v16.83h18.23v94.5h17.42v-94.5h18.23Zm26.86,94.5V4745.82h-17.35v111.33h17.35Zm41.5-112.87c-21.74,0-26.93,14.42-26.93,31.33v51.68c0,16.83,5.05,31.32,26.93,31.32v-0.07l0.07,0.07c21.74,0,26.87-14.27,26.87-31.32v-51.68c0-16.83-4.98-31.33-26.87-31.33-0.07,0-.07,0-0.07.08v-0.08Zm0,97.5c-8.71,0-9.51-7.25-9.51-14.57v-51.53c0-7.46,1.02-14.42,9.22-14.64a0.5,0.5,0,0,0,.36.08c8.71,0,9.52,7.24,9.52,14.56v51.53c0,7.47-1.1,14.42-9.3,14.64C1324.8,4841.85,1324.65,4841.78,1324.58,4841.78Zm57.9,15.37v-76.63l22.76,76.63h19.33l-0.22-111.33h-16.4v75.03l-21.15-75.03h-20.72v111.33h16.4Z" transform="translate(-541.577 -4743.28)"/>
</svg>
