<svg xmlns="http://www.w3.org/2000/svg" viewBox="0 0 532.33 114.91"><defs><style>.cls-1{fill:#ff3839;}.cls-2{fill:#1a1a1a;}</style></defs><title>Ресурс 2</title><g id="Слой_2" data-name="Слой 2"><g id="_01" data-name="01"><path class="cls-1" d="M62.35,107,27.63,0H0L36.34,107H62.59"/><path class="cls-2" d="M166.9,15.75a11.94,11.94,0,0,0-4.4-3.35,14.65,14.65,0,0,0-6-1.17,15.1,15.1,0,0,0-11.41,5,17.23,17.23,0,0,0-3.35,5.65A20.3,20.3,0,0,0,140.51,29a20.2,20.2,0,0,0,1.21,7.12A17.69,17.69,0,0,0,145,41.72a15,15,0,0,0,4.94,3.7,14.28,14.28,0,0,0,6.11,1.32,13.69,13.69,0,0,0,6.62-1.56,13.18,13.18,0,0,0,4.75-4.36l10.12,7.55a21.08,21.08,0,0,1-8.88,7.24A27.48,27.48,0,0,1,157.64,58a34,34,0,0,1-11.91-2,27.25,27.25,0,0,1-9.42-5.8A26.3,26.3,0,0,1,130.11,41a31.13,31.13,0,0,1-2.22-12,31.13,31.13,0,0,1,2.22-12,26.3,26.3,0,0,1,6.19-9.15A27.28,27.28,0,0,1,145.72,2a34,34,0,0,1,11.91-2,29.29,29.29,0,0,1,4.87.43,26.37,26.37,0,0,1,5,1.36A22.26,22.26,0,0,1,172.2,4.3a18.8,18.8,0,0,1,4,3.82Z"/><path class="cls-2" d="M186.21,29a31.13,31.13,0,0,1,2.22-12,26.3,26.3,0,0,1,6.19-9.15A27.28,27.28,0,0,1,204,2a36.07,36.07,0,0,1,23.83,0,27.29,27.29,0,0,1,9.42,5.8A26.3,26.3,0,0,1,243.49,17a31.14,31.14,0,0,1,2.22,12,31.14,31.14,0,0,1-2.22,12,26.3,26.3,0,0,1-6.19,9.15,27.27,27.27,0,0,1-9.42,5.8,36.07,36.07,0,0,1-23.83,0,27.25,27.25,0,0,1-9.42-5.8A26.3,26.3,0,0,1,188.43,41,31.13,31.13,0,0,1,186.21,29Zm12.61,0A20.2,20.2,0,0,0,200,36.11a16.29,16.29,0,0,0,3.47,5.61,15.79,15.79,0,0,0,5.41,3.7,19.42,19.42,0,0,0,14.09,0,15.8,15.8,0,0,0,5.41-3.7,16.33,16.33,0,0,0,3.46-5.61A20.22,20.22,0,0,0,233.09,29a20.32,20.32,0,0,0-1.21-7.09,16.28,16.28,0,0,0-3.46-5.65,15.85,15.85,0,0,0-5.41-3.7,19.42,19.42,0,0,0-14.09,0,15.83,15.83,0,0,0-5.41,3.7A16.24,16.24,0,0,0,200,21.9,20.3,20.3,0,0,0,198.83,29Z"/><path class="cls-2" d="M258.94,1.42h16.51l23.44,38.31H299V1.42h12.15V56.55H295.31L271.25,17.3h-.16V56.55H258.94Z"/><path class="cls-2" d="M363.44,15.75A11.93,11.93,0,0,0,359,12.4a14.65,14.65,0,0,0-6-1.17,15.1,15.1,0,0,0-11.41,5,17.22,17.22,0,0,0-3.35,5.65A20.28,20.28,0,0,0,337,29a20.18,20.18,0,0,0,1.21,7.12,17.68,17.68,0,0,0,3.31,5.61,15,15,0,0,0,4.94,3.7,14.28,14.28,0,0,0,6.11,1.32,13.7,13.7,0,0,0,6.62-1.56A13.17,13.17,0,0,0,364,40.82l10.12,7.55a21.08,21.08,0,0,1-8.88,7.24A27.48,27.48,0,0,1,354.17,58a34,34,0,0,1-11.91-2,27.25,27.25,0,0,1-9.42-5.8A26.29,26.29,0,0,1,326.65,41a31.13,31.13,0,0,1-2.22-12,31.13,31.13,0,0,1,2.22-12,26.29,26.29,0,0,1,6.19-9.15A27.28,27.28,0,0,1,342.26,2a34,34,0,0,1,11.91-2A29.3,29.3,0,0,1,359,.45a26.35,26.35,0,0,1,5,1.36,22.27,22.27,0,0,1,4.71,2.49,18.79,18.79,0,0,1,4,3.82Z"/><path class="cls-2" d="M386.18,1.42h37.45V12.63H398.32V22.91h23.91V34.12H398.32V45.34H425V56.55H386.18Z"/><path class="cls-2" d="M439.75,1.42h20.48a40.52,40.52,0,0,1,8.1.78A18.44,18.44,0,0,1,475,4.88,13.61,13.61,0,0,1,479.5,10a17.6,17.6,0,0,1,1.67,8.14,18.77,18.77,0,0,1-1.56,8.1,13.29,13.29,0,0,1-4.28,5.22,17.36,17.36,0,0,1-6.46,2.76,37.89,37.89,0,0,1-8.1.82H451.9V56.55H439.75ZM451.9,24.78H460a15.64,15.64,0,0,0,3.15-.31,8.37,8.37,0,0,0,2.73-1.05,5.61,5.61,0,0,0,1.95-2,6.4,6.4,0,0,0,.74-3.23,5.47,5.47,0,0,0-1-3.39,6.48,6.48,0,0,0-2.49-2,10.67,10.67,0,0,0-3.39-.9,34.85,34.85,0,0,0-3.58-.19H451.9Z"/><path class="cls-2" d="M504.46,12.17H488.73V1.42h43.61V12.17H516.6V56.55H504.46Z"/><path class="cls-2" d="M139.49,104.61V85.19h3v19.42h8.12V85.19h3v22.1H128.16V85.19h3v19.42Z"/><path class="cls-2" d="M162,98.37a11.33,11.33,0,0,1,2.09.19l4.81-6.12h3.22l-5.49,6.87a8.58,8.58,0,0,1,2.15,1.19,8.14,8.14,0,0,1,1.65,1.72,11,11,0,0,1,1.23,2.26,22.7,22.7,0,0,1,.92,2.83H169.4a13.08,13.08,0,0,0-1-3.11,6.42,6.42,0,0,0-1.51-2,5.3,5.3,0,0,0-2.09-1.09,12.33,12.33,0,0,0-2.73-.39v6.59h-2.9V92.43H162Z"/><path class="cls-2" d="M191.85,99.86a8,8,0,0,1-.61,3.15,7.49,7.49,0,0,1-1.69,2.48,7.6,7.6,0,0,1-2.54,1.62,8.63,8.63,0,0,1-3.18.58,8.51,8.51,0,0,1-3.17-.58,7.63,7.63,0,0,1-2.53-1.62,7.49,7.49,0,0,1-1.69-2.48,8.47,8.47,0,0,1,0-6.31,7.49,7.49,0,0,1,1.69-2.48,7.65,7.65,0,0,1,2.53-1.62,8.51,8.51,0,0,1,3.17-.58,8.63,8.63,0,0,1,3.18.58,7.62,7.62,0,0,1,2.54,1.62,7.49,7.49,0,0,1,1.69,2.48A8,8,0,0,1,191.85,99.86Zm-2.93,0a6,6,0,0,0-.36-2.1,5.21,5.21,0,0,0-1-1.71,4.68,4.68,0,0,0-1.59-1.15,5.58,5.58,0,0,0-4.25,0,4.69,4.69,0,0,0-1.59,1.15,5,5,0,0,0-1,1.71,6.27,6.27,0,0,0-.34,2.1,6.17,6.17,0,0,0,.34,2.06,5,5,0,0,0,1,1.71,4.86,4.86,0,0,0,1.59,1.16,5.4,5.4,0,0,0,4.25,0,4.85,4.85,0,0,0,1.59-1.16,5.22,5.22,0,0,0,1-1.71A6,6,0,0,0,188.91,99.86Z"/><path class="cls-2" d="M206.4,107.29,202,95.9l-4.65,11.39h-3.09l6.31-14.86h3l5.93,14.86Z"/><path class="cls-2" d="M221.94,97.71a3.2,3.2,0,0,0-1-2.53,3.89,3.89,0,0,0-2.67-.84,6,6,0,0,0-2.36.47A5.75,5.75,0,0,0,214.11,96l-1.56-1.75a7.46,7.46,0,0,1,2.59-1.62A9.41,9.41,0,0,1,218.6,92a8,8,0,0,1,2.4.34,5.28,5.28,0,0,1,1.89,1,4.74,4.74,0,0,1,1.25,1.73,6.52,6.52,0,0,1,.48,2.45c0,.29,0,.57,0,.84V104q0,.84,0,1.72t.14,1.53h-2.62q-.06-.53-.11-1.09t0-1.09H222a5.54,5.54,0,0,1-2.15,2,6.63,6.63,0,0,1-2.93.61,7.15,7.15,0,0,1-1.76-.23,5,5,0,0,1-1.69-.78,4.44,4.44,0,0,1-1.26-1.41,4.19,4.19,0,0,1-.5-2.14,3.87,3.87,0,0,1,.87-2.67,5.5,5.5,0,0,1,2.31-1.5,12.52,12.52,0,0,1,3.28-.66q1.84-.14,3.78-.14Zm-.59,2.4q-1.19,0-2.39.09a9.71,9.71,0,0,0-2.19.41,4.2,4.2,0,0,0-1.61.89,2,2,0,0,0-.62,1.51,2.21,2.21,0,0,0,.28,1.16,2.4,2.4,0,0,0,.72.76,2.86,2.86,0,0,0,1,.42,5.17,5.17,0,0,0,1.12.12,4.56,4.56,0,0,0,1.83-.34,3.94,3.94,0,0,0,1.36-1,4,4,0,0,0,.84-1.4,5.07,5.07,0,0,0,.28-1.7v-1Z"/><path class="cls-2" d="M247.39,92.09a8,8,0,0,1,3.15.61,7.41,7.41,0,0,1,4.07,4.12,8,8,0,0,1,.58,3,8.17,8.17,0,0,1-.58,3.11,7.32,7.32,0,0,1-1.61,2.45,7.48,7.48,0,0,1-2.47,1.62,8.59,8.59,0,0,1-3.15.62v7.24H244.7v-7.24a8.31,8.31,0,0,1-3.07-.62,7.38,7.38,0,0,1-2.45-1.64,7.7,7.7,0,0,1-1.62-2.47,8.32,8.32,0,0,1,0-6.13,7.53,7.53,0,0,1,1.61-2.45,7.39,7.39,0,0,1,2.45-1.64,8.39,8.39,0,0,1,3.11-.62v-8.4h2.69Zm-7.56,7.77a6.62,6.62,0,0,0,.33,2.11,5,5,0,0,0,1,1.72,4.6,4.6,0,0,0,1.55,1.15,5.08,5.08,0,0,0,2,.45V94.43a5.17,5.17,0,0,0-2.06.45A4.43,4.43,0,0,0,241.11,96a5.1,5.1,0,0,0-1,1.72A6.62,6.62,0,0,0,239.83,99.86Zm12.46,0a6.48,6.48,0,0,0-.33-2.09,5.14,5.14,0,0,0-1-1.7,4.59,4.59,0,0,0-1.55-1.17,5.13,5.13,0,0,0-2.08-.47V105.3a5.27,5.27,0,0,0,2.08-.45,4.41,4.41,0,0,0,1.55-1.15,5.11,5.11,0,0,0,1-1.72A6.62,6.62,0,0,0,252.29,99.86Z"/><path class="cls-2" d="M270.9,96.15l-8.43,11.15h-2.93V92.43h2.93v10.83l8.43-10.83h2.93v14.86H270.9Z"/><path class="cls-2" d="M277,92.43h13v2.34h-5.21v12.52h-2.9V94.78H277Z"/><path class="cls-2" d="M296,107.29h-2.9V92.43H296V98.3h7.52V92.43h2.9v14.86h-2.9v-6.65H296Z"/><path class="cls-2" d="M325.62,99.58v.51a5.14,5.14,0,0,1,0,.55H313.7a4.79,4.79,0,0,0,.42,1.86,4.72,4.72,0,0,0,1,1.48,5,5,0,0,0,1.55,1,4.82,4.82,0,0,0,1.89.37,4.88,4.88,0,0,0,2.67-.7A5.52,5.52,0,0,0,323,103l2.09,1.5a7.61,7.61,0,0,1-2.87,2.4,8.88,8.88,0,0,1-6.68.19,7.26,7.26,0,0,1-2.48-1.59,7.35,7.35,0,0,1-1.64-2.47,8.26,8.26,0,0,1-.59-3.18,8.5,8.5,0,0,1,.58-3.17,7.41,7.41,0,0,1,1.61-2.5,7.29,7.29,0,0,1,2.42-1.62,7.78,7.78,0,0,1,3-.58,7.69,7.69,0,0,1,3.06.58,6.47,6.47,0,0,1,2.26,1.59,7,7,0,0,1,1.4,2.39A9,9,0,0,1,325.62,99.58Zm-2.81-1a4.62,4.62,0,0,0-1.19-3.09,4.16,4.16,0,0,0-3.22-1.22,4.46,4.46,0,0,0-1.8.36A4.89,4.89,0,0,0,314.15,97a4.29,4.29,0,0,0-.45,1.62Z"/><path class="cls-2" d="M340.61,96.24A3.62,3.62,0,0,0,339.16,95a4.45,4.45,0,0,0-2-.48,5.07,5.07,0,0,0-2.09.42A4.79,4.79,0,0,0,333.43,96a5,5,0,0,0-1,1.71,6.39,6.39,0,0,0,0,4.22,5,5,0,0,0,1,1.71,4.79,4.79,0,0,0,1.59,1.13,5.06,5.06,0,0,0,2.09.42,4.67,4.67,0,0,0,2.14-.47,4.35,4.35,0,0,0,1.51-1.25l1.94,1.75a7.24,7.24,0,0,1-2.36,1.77,7.49,7.49,0,0,1-3.26.66,8.93,8.93,0,0,1-3.26-.58,7.22,7.22,0,0,1-2.53-1.62,7.52,7.52,0,0,1-1.64-2.48,8.67,8.67,0,0,1,0-6.31,7.52,7.52,0,0,1,1.64-2.48,7.24,7.24,0,0,1,2.53-1.62,8.93,8.93,0,0,1,3.26-.58,8,8,0,0,1,3.06.63,5.93,5.93,0,0,1,2.47,1.83Z"/><path class="cls-2" d="M355.06,97.71a3.2,3.2,0,0,0-1-2.53,3.89,3.89,0,0,0-2.67-.84,6,6,0,0,0-2.36.47A5.76,5.76,0,0,0,347.23,96l-1.56-1.75a7.46,7.46,0,0,1,2.59-1.62,9.41,9.41,0,0,1,3.47-.62,8,8,0,0,1,2.4.34,5.27,5.27,0,0,1,1.89,1,4.73,4.73,0,0,1,1.25,1.73,6.53,6.53,0,0,1,.48,2.45c0,.29,0,.57,0,.84V104q0,.84,0,1.72t.14,1.53h-2.62c0-.35-.08-.72-.11-1.09s0-.74,0-1.09h-.06a5.54,5.54,0,0,1-2.15,2,6.63,6.63,0,0,1-2.93.61,7.16,7.16,0,0,1-1.76-.23,5,5,0,0,1-1.69-.78,4.44,4.44,0,0,1-1.26-1.41,4.19,4.19,0,0,1-.5-2.14,3.87,3.87,0,0,1,.87-2.67,5.5,5.5,0,0,1,2.31-1.5,12.52,12.52,0,0,1,3.28-.66q1.84-.14,3.78-.14Zm-.59,2.4q-1.19,0-2.39.09a9.7,9.7,0,0,0-2.18.41,4.2,4.2,0,0,0-1.61.89,2,2,0,0,0-.62,1.51,2.21,2.21,0,0,0,.28,1.16,2.4,2.4,0,0,0,.72.76,2.85,2.85,0,0,0,1,.42,5.16,5.16,0,0,0,1.12.12,4.56,4.56,0,0,0,1.83-.34,4,4,0,0,0,1.36-1,4,4,0,0,0,.84-1.4,5.07,5.07,0,0,0,.28-1.7v-1Z"/><path class="cls-2" d="M382.32,96.15l-8.43,11.15H371V92.43h2.93v10.83l8.43-10.83h2.93v14.86h-2.93Z"/><path class="cls-2" d="M401.39,107.29h-2.9V92.43h13.08v14.86h-2.9V94.78h-7.27Z"/><path class="cls-2" d="M428.15,96.15l-8.43,11.15h-2.93V92.43h2.93v10.83l8.43-10.83h2.93v14.86h-2.93Z"/><path class="cls-2" d="M434.2,92.43h13v2.34H442v12.52h-2.9V94.78H434.2Z"/><path class="cls-2" d="M459.65,97.71a3.2,3.2,0,0,0-1-2.53,3.89,3.89,0,0,0-2.67-.84,6,6,0,0,0-2.36.47A5.76,5.76,0,0,0,451.81,96l-1.56-1.75a7.46,7.46,0,0,1,2.59-1.62,9.41,9.41,0,0,1,3.47-.62,8,8,0,0,1,2.4.34,5.27,5.27,0,0,1,1.89,1,4.73,4.73,0,0,1,1.25,1.73,6.53,6.53,0,0,1,.48,2.45c0,.29,0,.57,0,.84V104q0,.84,0,1.72t.14,1.53h-2.62c0-.35-.08-.72-.11-1.09s0-.74,0-1.09h-.06a5.54,5.54,0,0,1-2.15,2,6.63,6.63,0,0,1-2.93.61,7.16,7.16,0,0,1-1.76-.23,5,5,0,0,1-1.69-.78,4.44,4.44,0,0,1-1.26-1.41,4.19,4.19,0,0,1-.5-2.14,3.87,3.87,0,0,1,.87-2.67,5.5,5.5,0,0,1,2.31-1.5,12.52,12.52,0,0,1,3.28-.66q1.84-.14,3.78-.14Zm-.59,2.4q-1.19,0-2.39.09a9.7,9.7,0,0,0-2.18.41,4.2,4.2,0,0,0-1.61.89,2,2,0,0,0-.62,1.51,2.21,2.21,0,0,0,.28,1.16,2.4,2.4,0,0,0,.72.76,2.85,2.85,0,0,0,1,.42,5.16,5.16,0,0,0,1.12.12,4.56,4.56,0,0,0,1.83-.34,4,4,0,0,0,1.36-1,4,4,0,0,0,.84-1.4,5.07,5.07,0,0,0,.28-1.7v-1Z"/><path class="cls-2" d="M470.42,107.29h-2.9V92.43h2.9V98.3h7.52V92.43h2.9v14.86h-2.9v-6.65h-7.52Z"/><path class="cls-2" d="M497.42,96.15,489,107.29h-2.93V92.43H489v10.83l8.43-10.83h2.93v14.86h-2.93Z"/><path class="cls-2" d="M512.5,101.43a4,4,0,0,0-3.32,1.44,8.37,8.37,0,0,0-1.48,4.43h-3.22a10.7,10.7,0,0,1,1.45-4.53,5.31,5.31,0,0,1,2.95-2.37v-.09a4.81,4.81,0,0,1-2.61-1,3.21,3.21,0,0,1-1-2.65,3.61,3.61,0,0,1,1.7-3.2,5.84,5.84,0,0,1,1.92-.76,11.37,11.37,0,0,1,2.47-.25h6.21v14.86h-2.87v-5.87ZM508.16,97a1.75,1.75,0,0,0,.3,1.06,1.9,1.9,0,0,0,.8.62,4.11,4.11,0,0,0,1.19.3,13,13,0,0,0,1.47.08h2.75V94.9h-2.78q-.84,0-1.53.06a3.64,3.64,0,0,0-1.17.28,1.68,1.68,0,0,0-.75.64A2.05,2.05,0,0,0,508.16,97Z"/><path class="cls-1" d="M56.35,66l12.9,41L105.59,0H78L56.35,66"/></g></g></svg>