<svg xmlns="http://www.w3.org/2000/svg" width="65" height="65" viewBox="0 0 65 65">
  <defs>
    <style>
      .cls-1 {
        fill: #d42451;
        fill-rule: evenodd;
      }
    </style>
  </defs>
  <path id="Forma_1" data-name="Forma 1" class="cls-1" d="M1331.24,10908l-19.27-19.3a5.951,5.951,0,0,0-8.38,0l-33.86,33.9a5.957,5.957,0,0,0,0,8.4l19.27,19.2a5.777,5.777,0,0,0,8.38,0l33.86-33.8A5.957,5.957,0,0,0,1331.24,10908Zm-38.68,39.9a1.413,1.413,0,0,1-.76-0.5l-19.28-19.2h20.04v19.7h0Zm-18.86-23.7,31.51-31.5v30.6a0.889,0.889,0,0,1-.86.9H1273.7Zm22.81,21.3v-17.3h7.84a4.524,4.524,0,0,0,3.4-1.5,4.73,4.73,0,0,0,1.41-3.4v-7.8h17.37Zm12.65-33.9v-20.1h0.02l19.27,19.3a1.76,1.76,0,0,1,.45.8h-19.74Zm-39.24-16.2h20.23a1.964,1.964,0,0,0,1.92-2,1.943,1.943,0,0,0-1.92-1.9h-20.23a1.943,1.943,0,0,0-1.92,1.9A1.964,1.964,0,0,0,1269.92,10895.4Zm0,7.5h12.69a1.9,1.9,0,1,0,0-3.8h-12.69A1.9,1.9,0,1,0,1269.92,10902.9Zm0,7.4h8.19a1.973,1.973,0,0,0,1.93-2,1.952,1.952,0,0,0-1.93-1.9h-8.19a1.943,1.943,0,0,0-1.92,1.9A1.964,1.964,0,0,0,1269.92,10910.3Zm8.19,35.3h-8.19a1.964,1.964,0,0,0-1.92,2,1.943,1.943,0,0,0,1.92,1.9h8.19a1.952,1.952,0,0,0,1.93-1.9A1.973,1.973,0,0,0,1278.11,10945.6Z" transform="translate(-1268 -10887)"/>
</svg>
