<svg xmlns="http://www.w3.org/2000/svg" width="64.06" height="65" viewBox="0 0 64.06 65">
  <defs>
    <style>
      .cls-1 {
        fill: #d42451;
        stroke: #e93333;
        stroke-width: 1px;
        fill-rule: evenodd;
      }
    </style>
  </defs>
  <path id="Forma_1" data-name="Forma 1" class="cls-1" d="M1288.08,11164.8c-3.71,0-6.62,2.1-6.62,4.7s2.91,4.6,6.62,4.6,6.62-2,6.62-4.6S1291.79,11164.8,1288.08,11164.8Zm0,6.7c-2.25,0-3.97-1.1-3.97-2,0-1.1,1.72-2.1,3.97-2.1s3.97,1.2,3.97,2.1C1292.05,11170.5,1290.33,11171.5,1288.08,11171.5Zm36.82,8.4h-17.22v-10.4c0-7.2-8.74-13-19.6-13s-19.6,5.8-19.6,13v26.5c0,5.8,5.96,11,14.43,12.6v10.6a1.231,1.231,0,0,0,1.33,1.3h40.66a6.458,6.458,0,0,0,6.62-6.5v-27.6A6.458,6.458,0,0,0,1324.9,11179.9Zm-36.82-20.8c9.4,0,16.95,4.7,16.95,10.4s-7.55,10.4-16.95,10.4-16.95-4.7-16.95-10.4S1278.68,11159.1,1288.08,11159.1Zm16.95,16.9v3.9h-5.29A18.319,18.319,0,0,0,1305.03,11176Zm-22.12,15.6v14.2c-6.88-1.4-11.78-5.3-11.78-9.8v-20c3.44,3.9,9.67,6.5,16.95,6.5h36.82a3.812,3.812,0,0,1,3.97,3.9,3.871,3.871,0,0,1-3.97,3.9h-40.66A1.231,1.231,0,0,0,1282.91,11191.6Zm46.23,22.3h-0.27a3.871,3.871,0,0,1-3.97,3.9h-1.59v-6a1.325,1.325,0,0,0-2.65,0v6h-4.9v-6a1.325,1.325,0,0,0-2.65,0v6h-4.9v-6a1.325,1.325,0,0,0-2.65,0v6h-4.9v-6a1.325,1.325,0,0,0-2.65,0v6h-4.9v-6a1.325,1.325,0,0,0-2.65,0v6h-4.63v-10a0.865,0.865,0,0,1,.13-0.3,1.012,1.012,0,0,0-.13-0.6v-14h39.33a7.543,7.543,0,0,0,3.98-1.3v22.3h0Z" transform="translate(-1267.97 -11156)"/>
</svg>
