<svg xmlns="http://www.w3.org/2000/svg" width="75" height="75" viewBox="0 0 75 75">
  <defs>
    <style>
      .cls-1 {
        fill: #d42451;
        stroke: #e93333;
        stroke-width: 1px;
        fill-rule: evenodd;
      }
    </style>
  </defs>
  <path class="cls-1" d="M735.345,11212.1l-35.895-35.9a1.026,1.026,0,0,0-.909-0.3,1,1,0,0,0-.868.4,9.383,9.383,0,0,0-1.75,5.4c-0.145,4.3,2.059,8.8,6.551,13.2l8.991,9a4.11,4.11,0,0,0,5.8,0h0.36l1.453,1.5a0.3,0.3,0,0,1-.019.3,4.089,4.089,0,0,0,.831,4.6l8.619,8.6a4.866,4.866,0,0,0,6.831,0A4.8,4.8,0,0,0,735.345,11212.1Zm-1.694,5.1a2.351,2.351,0,0,1-3.443,0l-8.618-8.6a1.7,1.7,0,0,1-.346-1.9,2.639,2.639,0,0,0-.466-3l-1.453-1.5a2.861,2.861,0,0,0-3.75,0,1.708,1.708,0,0,1-2.415,0l-8.991-8.9c-6.958-7-6.2-12.1-5.295-14.3l34.777,34.8A2.386,2.386,0,0,1,733.651,11217.2Zm2.779-38.5a1.145,1.145,0,0,0-1.695,0l-7.647,7.6a1.2,1.2,0,0,0,0,1.7,1.1,1.1,0,0,0,1.694,0l7.648-7.6A1.2,1.2,0,0,0,736.43,11178.7Zm-3.256-4.3a1.346,1.346,0,0,0-1.694,0l-7.8,7.8a6.257,6.257,0,0,0-1.936,4.2l-0.053,2.2-2.172,2.2a1.2,1.2,0,0,0,0,1.7,1.346,1.346,0,0,0,1.694,0l2.512-2.5a1.137,1.137,0,0,0,.35-0.8l0.065-2.7a4.036,4.036,0,0,1,1.234-2.6l7.795-7.8A1.2,1.2,0,0,0,733.174,11174.4Zm-20.484,33.1a1.347,1.347,0,0,0-1.7,0l-9.586,9.6a2.467,2.467,0,0,1-3.443,0,2.2,2.2,0,0,1-.713-1.7,2.531,2.531,0,0,1,.713-1.7l9.254-9.3a1.2,1.2,0,0,0,0-1.7,1.346,1.346,0,0,0-1.694,0l-9.254,9.3a4.792,4.792,0,0,0,0,6.8,4.866,4.866,0,0,0,6.831,0l9.587-9.6A1.2,1.2,0,0,0,712.69,11207.5Zm28.153-25.4a1.145,1.145,0,0,0-1.695,0l-7.794,7.8a3.99,3.99,0,0,1-2.554,1.2l-2.817-.1a1.031,1.031,0,0,0-.865.4l-2.512,2.5a1.2,1.2,0,0,0,0,1.7,1.346,1.346,0,0,0,1.694,0l2.154-2.2,2.309,0.1a6.212,6.212,0,0,0,4.285-1.9l7.795-7.8A1.2,1.2,0,0,0,740.843,11182.1Zm1.81-10.8a37.1,37.1,0,1,0,10.833,26.2A37.071,37.071,0,0,0,742.653,11171.3Zm-1.694,50.7a34.69,34.69,0,1,1,10.131-24.5A34.473,34.473,0,0,1,740.959,11222Z" transform="translate(-679 -11160)"/>
</svg>
