<svg xmlns="http://www.w3.org/2000/svg" width="230.5" height="166.63" viewBox="0 0 230.5 166.63">
  <defs>
    <style>
      .cls-1 {
        fill: none;
        stroke: #e5152e;
        stroke-width: 2px;
        fill-rule: evenodd;
      }
    </style>
  </defs>
  <path id="_800_copy_2" data-name="800 copy 2" class="cls-1" d="M248.182,2612.83c0,14.26,2.43,27.05,13.1,33.49-11.306,6.45-14.264,19.02-14.264,36.46v5.6c0,23.66,5.917,43,35.609,43,29.48,0,35.714-19.02,35.714-43.11v-7.4c0-14.68-3.17-28.1-15-34.55,11.306-6.76,13.842-20.08,13.842-33.18v-2.96c0-22.4-4.121-43.42-34.552-43.42-30.22,0-34.447,21.02-34.447,43.32v2.75Zm34.447,43c14.793,0,15.638,14.16,15.638,25.99v5.08c0,14.58-1.585,25.14-15.638,25.14-15.322,0-15.427-12.46-15.427-25.04v-5.07C267.2,2670.1,267.941,2655.83,282.629,2655.83Zm0-19.44c-14.159,0-14.265-13.53-14.265-23.14v-1.8c0-12.57-.423-25.36,14.265-25.36,14.793,0,14.37,13.1,14.37,25.47v1.79C297,2622.86,296.682,2636.39,282.629,2636.39Zm42.714,49.34c0,23.36,3.7,45.65,35.609,45.65,31.594,0,35.715-21.66,35.715-45.75v-73.12c0-23.56-3.7-45.75-35.715-45.75-31.7,0-35.609,21.76-35.609,45.85v73.12Zm35.609,26.31c-15.638,0-15.427-12.46-15.427-26.41v-72.91c0-14.79.528-26.63,15.427-26.63,15.639,0,15.639,12.58,15.639,26.52v72.91C376.591,2700.32,376.062,2712.04,360.952,2712.04Zm43.249-26.31c0,23.36,3.7,45.65,35.609,45.65,31.594,0,35.715-21.66,35.715-45.75v-73.12c0-23.56-3.7-45.75-35.715-45.75-31.7,0-35.609,21.76-35.609,45.85v73.12Zm35.609,26.31c-15.638,0-15.427-12.46-15.427-26.41v-72.91c0-14.79.529-26.63,15.427-26.63,15.639,0,15.639,12.58,15.639,26.52v72.91C455.449,2700.32,454.921,2712.04,439.81,2712.04Z" transform="translate(-246.031 -2565.75)"/>
</svg>
