<svg xmlns="http://www.w3.org/2000/svg" width="19" height="17.75" viewBox="0 0 19 17.75">
  <defs>
    <style>
      .cls-1 {
        fill: #ff3232;
        fill-rule: evenodd;
      }
    </style>
  </defs>
  <path id="Forma_1_копия_5" data-name="Forma 1 копия 5" class="cls-1" d="M408.493,3098.01l-2.658-2.48a1.822,1.822,0,0,0-2.943.62,1.839,1.839,0,0,1-2.089,1.06c-1.9-.44-4.461-2.74-4.936-4.6a1.592,1.592,0,0,1,1.139-1.95,1.6,1.6,0,0,0,.665-2.74l-2.658-2.48a2,2,0,0,0-2.564,0l-1.8,1.68c-1.8,1.77.19,6.46,4.651,10.62s9.494,6.11,11.392,4.34l1.8-1.68A1.682,1.682,0,0,0,408.493,3098.01Z" transform="translate(-390 -3084.97)"/>
</svg>
