<svg xmlns="http://www.w3.org/2000/svg" width="24" height="24" viewBox="0 0 24 24">
  <defs>
    <style>
      .cls-1 {
        fill: #ff3232;
        fill-rule: evenodd;
      }
    </style>
  </defs>
  <path id="Forma_1" data-name="Forma 1" class="cls-1" d="M402,3251a12,12,0,1,0,12,12A12.019,12.019,0,0,0,402,3251Zm7.668,18.12-0.726-.72a1.09,1.09,0,1,0-1.542,1.54l0.725,0.73a9.779,9.779,0,0,1-5.034,2.09v-1.03a1.091,1.091,0,0,0-2.182,0v1.03a9.779,9.779,0,0,1-5.034-2.09l0.725-.73a1.09,1.09,0,1,0-1.543-1.54l-0.725.72a9.758,9.758,0,0,1-2.089-5.03h1.03a1.09,1.09,0,1,0,0-2.18h-1.03a9.758,9.758,0,0,1,2.089-5.03l0.725,0.72a1.09,1.09,0,0,0,1.543-1.54l-0.725-.73a9.779,9.779,0,0,1,5.034-2.09v1.03a1.091,1.091,0,0,0,2.182,0v-1.03a9.779,9.779,0,0,1,5.034,2.09l-0.725.73a1.09,1.09,0,0,0,1.542,1.54l0.725-.72a9.751,9.751,0,0,1,2.09,5.03h-1.03a1.085,1.085,0,1,0,0,2.17h1.03A9.791,9.791,0,0,1,409.668,3269.12Zm-4.715-4.71-1.862-1.86v-3.91a1.091,1.091,0,0,0-2.182,0V3263a1.077,1.077,0,0,0,.32.77l2.181,2.18A1.09,1.09,0,1,0,404.953,3264.41Z" transform="translate(-390 -3251)"/>
</svg>
